Coordinates
version=1
nRows=5
nColumns=40
inDegrees=yes

Units are S.I. units (second, meters, Newtons, ...)
If the header above contains a line with 'inDegrees', this indicates whether rotational values are in degrees (yes) or radians (no).

endheader
time	pelvis_tilt	pelvis_list	pelvis_rotation	pelvis_tx	pelvis_ty	pelvis_tz	hip_flexion_r	hip_adduction_r	hip_rotation_r	knee_angle_r	knee_angle_r_beta	ankle_angle_r	subtalar_angle_r	mtp_angle_r	hip_flexion_l	hip_adduction_l	hip_rotation_l	knee_angle_l	knee_angle_l_beta	ankle_angle_l	subtalar_angle_l	mtp_angle_l	lumbar_extension	lumbar_bending	lumbar_rotation	arm_flex_r	arm_add_r	arm_rot_r	elbow_flex_r	pro_sup_r	wrist_flex_r	wrist_dev_r	arm_flex_l	arm_add_l	arm_rot_l	elbow_flex_l	pro_sup_l	wrist_flex_l	wrist_dev_l
      5.12000000000000010658	     48.25712452798539686682	     -1.66645357693149409606	   -176.69952909682970698668	      0.42178563843210792328	      0.62312029691151038513	     -0.61849725749316863954	    111.62067116751177309197	    -10.77871054042030252162	      3.53085320945066216680	     74.11985739282242491299	      1.29363555261341134361	     14.79537744152195521963	      0.00000000000000000000	      0.00000000000000000000	    109.30259314624559863205	     -5.68723691829903899020	     -0.83711923464740922718	     71.79311648985311933302	      1.25302626301577113566	     12.84378783351631625465	      0.00000000000000000000	      0.00000000000000000000	    -19.42533713743160106446	      0.65011896600762331122	      1.40784103118152259526	     63.76811583481062228884	     -9.11800548034443814061	     34.18927980785645104334	      1.03305803517724759111	     86.60021399283088783250	      0.00000000000000000000	      0.00000000000000000000	     54.98603111909230278798	     -0.47567623369042955073	     38.32050809649047806715	      0.61581751738766954407	      2.67811294937189714460	      0.00000000000000000000	      0.00000000000000000000
      5.12500000000000000000	     48.24451340520665354461	     -1.41680864905780423690	   -176.80127543078901908302	      0.42158514581052614068	      0.62485103478795933629	     -0.61878963543145792947	    111.25697769758244248806	    -10.74306488787794400253	      3.15819500408489384213	     73.74109161954645230708	      1.28702484277588347084	     14.71914184643126866092	      0.00000000000000000000	      0.00000000000000000000	    109.10952776669942920762	     -5.59766794491978547654	     -0.37345370712439840410	     71.46041723948248147735	      1.24721956567788661019	     12.74705718120834063711	      0.00000000000000000000	      0.00000000000000000000	    -19.64738235900835405801	      0.88477217472643410190	      1.56741326376320166958	     63.90081459914966188762	     -9.11650909558720101700	     34.33936761382138058707	      1.03288728212852221056	     86.62389426224649469077	      0.00000000000000000000	      0.00000000000000000000	     55.10130557543549656430	     -0.44252787677678040446	     38.15406308285958658644	      0.61601585899308664018	      2.62555292629072756228	      0.00000000000000000000	      0.00000000000000000000
      5.12999999999999989342	     48.53180906145946948982	     -1.63141028186070902173	   -176.73778386938266748984	      0.42200933610160945575	      0.62642220864050812690	     -0.61824197749226306176	    111.33735484701402640439	    -10.78174004649400963274	      3.36198556188520214505	     73.27399070730659502715	      1.27887239391822871148	     14.48742772327179118008	      0.00000000000000000000	      0.00000000000000000000	    109.08244502856166491256	     -5.67103288354217038858	     -0.89768531849902033493	     70.99727365341628626538	      1.23913618519153767572	     12.40423415513957650091	      0.00000000000000000000	      0.00000000000000000000	    -19.56372893544135749266	      0.73038586280232220549	      1.41175377109763755534	     64.03104938304100812729	     -9.11239368125035120727	     34.43423285386988652590	      1.02410013063988891702	     86.62363806437961954998	      0.00000000000000000000	      0.00000000000000000000	     55.09494775810010480654	     -0.46123811870702396964	     38.61097603904394759411	      0.61703905631117161867	      2.69042693310399627649	      0.00000000000000000000	      0.00000000000000000000
      5.13499999999999978684	     48.65075346553273050176	     -1.62458740665324063990	   -176.74436602852799182983	      0.42201357230694008793	      0.62813740627281511308	     -0.61806434930736009470	    111.15538699341956885291	    -10.77333576882929477847	      3.31957565257357334332	     72.82781140302215305837	      1.27108509600420749308	     14.36655336817270800509	      0.00000000000000000000	      0.00000000000000000000	    108.93372165450441002577	     -5.66667580910949464368	     -0.96878163886527102200	     70.58042555324314548670	      1.23186081336283326237	     12.24792244748329572701	      0.00000000000000000000	      0.00000000000000000000	    -19.64804906034887821420	      0.75511580989784710116	      1.40752629454634647921	     64.15209221337558176401	     -9.12267732736164838059	     34.48158419743955960257	      1.01776493844229487529	     86.61061784764162041483	      0.00000000000000000000	      0.00000000000000000000	     55.25540891106735585936	     -0.42615456636506537924	     38.03374405771421606914	      0.61868990007175039825	      2.72741200435595887441	      0.00000000000000000000	      0.00000000000000000000
      5.13999999999999968026	     48.63876536009727402643	     -1.54218038557015324486	   -176.93143666003246039509	      0.42178875256535569571	      0.62982085755258943038	     -0.61845771273150040859	    110.82291744644714981405	    -10.58079974124331279484	      3.11839822327926263767	     72.43292582645416644027	      1.26419304252446007553	     14.30480313117700319481	      0.00000000000000000000	      0.00000000000000000000	    108.70808601218806188626	     -5.67216290057743499631	     -0.58943171732728016909	     70.29246146207383105775	      1.22683489184441563147	     12.22543598879809501057	      0.00000000000000000000	      0.00000000000000000000	    -19.87020575460207538754	      0.78827624233643622809	      1.58539359256846701385	     64.28771089230856716767	     -9.09953956815507680744	     34.23387513884696886635	      1.01431045569641287152	     86.55328685010465505911	      0.00000000000000000000	      0.00000000000000000000	     55.36176798690655687096	     -0.42330307370339026463	     37.90112346871010373661	      0.62000484220286722348	      2.70974597253882842907	      0.00000000000000000000	      0.00000000000000000000
